<svg xmlns="http://www.w3.org/2000/svg" viewBox="0 0 512 512" role="img" aria-label="Two Seats app icon">
  <defs>
    <linearGradient id="bg" x1="0" y1="0" x2="1" y2="1">
      <stop offset="0%" stop-color="#111827" />
      <stop offset="100%" stop-color="#0f172a" />
    </linearGradient>
    <radialGradient id="glow" cx="50%" cy="42%" r="55%">
      <stop offset="0%" stop-color="#ffffff" stop-opacity="0.14" />
      <stop offset="100%" stop-color="#ffffff" stop-opacity="0" />
    </radialGradient>
    <linearGradient id="frame" x1="0" y1="0" x2="0" y2="1">
      <stop offset="0%" stop-color="#1f2937" />
      <stop offset="100%" stop-color="#0b1220" />
    </linearGradient>
    <filter id="shadow" x="-20%" y="-20%" width="140%" height="140%">
      <feDropShadow dx="0" dy="14" stdDeviation="14" flood-color="#000000" flood-opacity="0.35" />
    </filter>
  </defs>
  <rect width="512" height="512" rx="144" fill="url(#bg)" />
  <circle cx="256" cy="230" r="178" fill="url(#glow)" />

  <rect x="92" y="80" width="328" height="48" rx="24" fill="url(#frame)" opacity="0.88" />
  <g fill="#0f172a" opacity="0.7">
    <circle cx="130" cy="104" r="6" />
    <circle cx="158" cy="104" r="6" />
    <circle cx="186" cy="104" r="6" />
    <circle cx="326" cy="104" r="6" />
    <circle cx="354" cy="104" r="6" />
    <circle cx="382" cy="104" r="6" />
  </g>

  <g filter="url(#shadow)">
    <circle cx="190" cy="250" r="100" fill="#fbbf24" />
    <circle cx="322" cy="262" r="100" fill="#c084fc" />
    <circle cx="190" cy="250" r="80" fill="#fbbf24" stroke="#0f172a" stroke-width="10" />
    <circle cx="322" cy="262" r="80" fill="#c084fc" stroke="#0f172a" stroke-width="10" />
  </g>

  <text x="190" y="282" text-anchor="middle" font-family="Funnel Sans, Arial, sans-serif" font-size="94" font-weight="800" fill="#0f172a">A</text>
  <text x="322" y="294" text-anchor="middle" font-family="Funnel Sans, Arial, sans-serif" font-size="94" font-weight="800" fill="#0f172a">N</text>

  <path d="M164 374 C 205 350, 307 350, 348 374" fill="none" stroke="#ffffff" stroke-opacity="0.12" stroke-width="8" stroke-linecap="round" />
</svg>